<?xml version="1.0" standalone="no"?>
<!DOCTYPE svg PUBLIC "-//W3C//DTD SVG 20010904//EN"
 "http://www.w3.org/TR/2001/REC-SVG-20010904/DTD/svg10.dtd">
<svg version="1.0" xmlns="http://www.w3.org/2000/svg"
 width="120.000000pt" height="104.000000pt" viewBox="0 0 120.000000 104.000000"
 preserveAspectRatio="xMidYMid meet">
<g transform="translate(0.000000,104.000000) scale(0.100000,-0.100000)"
fill="#000000" stroke="none">
<path d="M220 700 c-19 -19 -20 -33 -20 -243 0 -204 2 -226 19 -245 18 -22 22
-22 383 -22 335 0 366 1 381 17 13 15 16 53 17 242 1 218 0 225 -21 247 l-22
24 -359 0 c-345 0 -359 -1 -378 -20z m567 -13 c55 -1 99 1 97 5 -8 12 67 1 79
-12 9 -10 9 -11 -3 -5 -11 6 -11 4 2 -11 15 -17 16 -37 10 -187 -4 -93 -3
-175 1 -182 11 -20 -2 -65 -19 -65 -8 0 -14 -4 -14 -9 0 -5 -15 -7 -32 -6 -18
2 -179 3 -357 4 l-323 1 4 29 c2 17 2 28 -1 26 -5 -3 -5 124 2 312 1 39 -1 69
-5 66 -17 -10 -7 17 11 29 18 13 181 14 548 5z"/>
<path d="M258 673 c7 -3 16 -2 19 1 4 3 -2 6 -13 5 -11 0 -14 -3 -6 -6z"/>
<path d="M333 633 c-21 -14 -23 -23 -23 -114 0 -92 2 -100 23 -114 16 -10 43
-14 83 -12 33 1 60 -2 62 -8 1 -5 -2 -10 -8 -10 -5 0 -11 -4 -12 -10 -2 -6 50
-11 138 -13 134 -2 141 -2 160 19 10 13 13 19 5 14 -9 -5 -12 -4 -8 3 4 6 24
8 46 5 26 -4 46 0 65 12 25 17 26 20 26 115 0 139 19 130 -286 129 -209 0
-253 -3 -271 -16z m532 -113 l0 -95 -265 0 -265 0 -3 84 c-2 46 -1 90 2 98 5
11 55 13 268 11 l263 -3 0 -95z m-131 -129 c3 -5 -42 -8 -102 -8 l-107 0 100
7 c55 3 101 7 102 8 1 1 4 -2 7 -7z"/>
<path d="M398 553 c-28 -32 -4 -83 38 -83 16 0 28 8 36 25 24 54 -36 101 -74
58z m38 -50 c-10 -10 -16 -13 -12 -6 3 6 0 14 -6 17 -11 5 -11 7 0 12 6 3 9
11 6 17 -4 7 2 4 12 -5 18 -18 18 -18 0 -35z"/>
<path d="M728 545 c-24 -54 36 -101 74 -57 28 31 4 82 -38 82 -16 0 -28 -8
-36 -25z m47 -5 c-3 -5 -1 -10 4 -10 6 0 11 -5 11 -11 0 -6 -6 -9 -14 -6 -7 3
-19 0 -25 -6 -6 -6 -11 -8 -11 -4 0 12 24 47 33 47 4 0 5 -4 2 -10z"/>
<path d="M433 375 c-24 -17 -28 -56 -4 -47 8 3 12 1 8 -5 -4 -6 0 -16 8 -23
14 -11 14 -15 -2 -33 -18 -19 -17 -20 6 -7 21 11 23 10 18 -4 -4 -10 -3 -14 2
-11 5 3 12 1 16 -5 9 -15 216 -12 235 3 15 12 41 70 43 95 0 8 8 10 21 6 17
-4 18 -3 6 5 -26 19 -35 12 -64 -44 l-28 -55 -99 0 -99 0 -26 53 c-15 28 -31
54 -36 56 -5 1 -1 9 9 17 25 18 13 18 -14 -1z m2 -25 c3 -5 1 -10 -4 -10 -6 0
-11 5 -11 10 0 6 2 10 4 10 3 0 8 -4 11 -10z"/>
</g>
</svg>
